<svg xmlns="http://www.w3.org/2000/svg" width="19" height="19" fill="none" viewBox="0 0 19 19"><path fill="#434343" d="M14 13H5.388L5.721 12H15.754L18.326 3H3.644L2.744 0H0V2H1.256L3.951 10.985L3.243 13.109C2.70161 13.2514 2.21097 13.5427 1.82676 13.9499C1.44254 14.3571 1.18013 14.8637 1.06929 15.4125C0.958456 15.9612 1.00363 16.53 1.19969 17.0544C1.39576 17.5787 1.73486 18.0376 2.17852 18.379C2.62219 18.7204 3.15266 18.9307 3.70975 18.9859C4.26684 19.041 4.82824 18.939 5.33027 18.6913C5.83229 18.4436 6.25485 18.0601 6.54998 17.5844C6.84511 17.1087 7.00102 16.5598 7 16C6.99669 15.6586 6.93444 15.3203 6.816 15H11.184C11.0656 15.3203 11.0033 15.6586 11 16C11 16.5933 11.1759 17.1734 11.5056 17.6667C11.8352 18.1601 12.3038 18.5446 12.8519 18.7716C13.4001 18.9987 14.0033 19.0581 14.5853 18.9424C15.1672 18.8266 15.7018 18.5409 16.1213 18.1213C16.5409 17.7018 16.8266 17.1672 16.9424 16.5853C17.0581 16.0033 16.9987 15.4001 16.7716 14.8519C16.5446 14.3038 16.1601 13.8352 15.6667 13.5056C15.1734 13.1759 14.5933 13 14 13ZM15.674 5L14.246 10H5.746L4.246 5H15.674ZM5 16C5 16.1978 4.94135 16.3911 4.83147 16.5556C4.72159 16.72 4.56541 16.8482 4.38268 16.9239C4.19996 16.9996 3.99889 17.0194 3.80491 16.9808C3.61093 16.9422 3.43275 16.847 3.29289 16.7071C3.15304 16.5673 3.0578 16.3891 3.01921 16.1951C2.98063 16.0011 3.00043 15.8 3.07612 15.6173C3.15181 15.4346 3.27998 15.2784 3.44443 15.1685C3.60888 15.0586 3.80222 15 4 15C4.26522 15 4.51957 15.1054 4.70711 15.2929C4.89464 15.4804 5 15.7348 5 16ZM14 17C13.8022 17 13.6089 16.9414 13.4444 16.8315C13.28 16.7216 13.1518 16.5654 13.0761 16.3827C13.0004 16.2 12.9806 15.9989 13.0192 15.8049C13.0578 15.6109 13.153 15.4327 13.2929 15.2929C13.4327 15.153 13.6109 15.0578 13.8049 15.0192C13.9989 14.9806 14.2 15.0004 14.3827 15.0761C14.5654 15.1518 14.7216 15.28 14.8315 15.4444C14.9414 15.6089 15 15.8022 15 16C15 16.2652 14.8946 16.5196 14.7071 16.7071C14.5196 16.8946 14.2652 17 14 17Z"/></svg>