<svg width="28" height="28" viewBox="0 0 28 28" fill="none" xmlns="http://www.w3.org/2000/svg">
<path d="M27.9694 14.0001L24.6668 5.74408V0.666748H3.33343V5.74408L0.0307617 14.0001H3.33343V27.3334H24.6668V14.0001H27.9694ZM5.56943 7.33342H9.70276L8.90276 11.3334H3.96943L5.56943 7.33342ZM12.4268 7.33342H15.5734L16.3734 11.3334H11.6268L12.4268 7.33342ZM19.0934 11.3334L18.2934 7.33342H22.4268L24.0268 11.3334H19.0934ZM6.0001 3.33341H22.0001V4.66675H6.0001V3.33341ZM12.6668 24.6667V19.3334H15.3334V24.6667H12.6668ZM22.0001 24.6667H18.0001V16.6667H10.0001V24.6667H6.0001V14.0001H22.0001V24.6667Z" fill="#5859F3"/>
</svg>
