<svg width="28" height="28" viewBox="0 0 28 28" fill="none" xmlns="http://www.w3.org/2000/svg">
<path d="M27.9693 14.0001L24.6666 5.74408V0.666748H3.33331V5.74408L0.0306396 14.0001H3.33331V27.3334H24.6666V14.0001H27.9693ZM5.56931 7.33342H9.70264L8.90264 11.3334H3.96931L5.56931 7.33342ZM12.4266 7.33342H15.5733L16.3733 11.3334H11.6266L12.4266 7.33342ZM19.0933 11.3334L18.2933 7.33342H22.4266L24.0266 11.3334H19.0933ZM5.99997 3.33341H22V4.66675H5.99997V3.33341ZM12.6666 24.6667V19.3334H15.3333V24.6667H12.6666ZM22 24.6667H18V16.6667H9.99997V24.6667H5.99997V14.0001H22V24.6667Z" fill="black"/>
</svg>
